<?xml version="1.0" encoding="utf-8"?>
<!-- Generator: Adobe Illustrator 19.1.0, SVG Export Plug-In . SVG Version: 6.00 Build 0)  -->
<!DOCTYPE svg PUBLIC "-//W3C//DTD SVG 1.1//EN" "http://www.w3.org/Graphics/SVG/1.1/DTD/svg11.dtd">
<svg version="1.1" id="Ebene_1" xmlns="http://www.w3.org/2000/svg" xmlns:xlink="http://www.w3.org/1999/xlink" x="0px" y="0px"
	 viewBox="-412 290.3 16 16" style="enable-background:new -412 290.3 16 16;" xml:space="preserve">
<style type="text/css">
	.st0{fill:none;}
	.st1{fill:#FFFFFF;}
	.st2{fill:#E64E4F;}
</style>
<g id="XMLID_11_">
	<polygon id="XMLID_12_" points="-396,304.1 -399.9,301.8 -399.9,303.5 -404.5,303.5 -404.5,304.6 -399.9,304.6 -399.9,306.3 	"/>
</g>
<g>
	<path class="st0" d="M-409.6,295.8c0.3-1.4,1.5-2.5,2.8-2.7C-408.2,293.3-409.3,294.4-409.6,295.8z"/>
	<path class="st1" d="M-406.9,299.6v-2.8h-2.7C-409.3,298.2-408.3,299.2-406.9,299.6z"/>
	<path class="st1" d="M-409.6,295.8h2.8v-2.7C-408.1,293.3-409.3,294.4-409.6,295.8z"/>
	<path class="st1" d="M-405.8,293.1v2.7h2.7C-403.3,294.4-404.4,293.3-405.8,293.1z"/>
	<path class="st1" d="M-405.8,299.6c1.4-0.3,2.5-1.4,2.7-2.8h-2.7V299.6z"/>
	<path class="st2" d="M-402.1,295.8c-0.2-2-1.8-3.5-3.7-3.7v-1.8h-1v1.8c-2,0.2-3.5,1.8-3.7,3.7h-1.5v1h1.4c0.2,2,1.8,3.5,3.7,3.7
		v1.8h1v-1.8c2-0.2,3.5-1.8,3.7-3.7h1.4v-1H-402.1z M-406.9,299.6c-1.4-0.4-2.4-1.4-2.7-2.8h2.7
		C-406.9,296.8-406.9,299.6-406.9,299.6z M-406.8,295.8h-2.8c0.3-1.4,1.4-2.5,2.8-2.7V295.8z M-405.8,299.6v-2.8h2.7
		C-403.3,298.2-404.4,299.3-405.8,299.6z M-405.8,295.8v-2.7c1.4,0.2,2.5,1.3,2.7,2.7H-405.8z"/>
</g>
</svg>
