<?xml version="1.0" encoding="utf-8"?>
<!-- Generator: Adobe Illustrator 19.0.0, SVG Export Plug-In . SVG Version: 6.00 Build 0)  -->
<!DOCTYPE svg PUBLIC "-//W3C//DTD SVG 1.1//EN" "http://www.w3.org/Graphics/SVG/1.1/DTD/svg11.dtd">
<svg version="1.1" id="Ebene_1" xmlns="http://www.w3.org/2000/svg" xmlns:xlink="http://www.w3.org/1999/xlink" x="0px" y="0px"
	 viewBox="0 0 16 16" style="enable-background:new 0 0 16 16;" xml:space="preserve">
<g>
	<g id="XMLID_140_">
		<path id="XMLID_141_" d="M0.3,4.7c0.2,0,1.1-0.1,1.1-0.1s0.2,0.5,0.3,0.7c0.2,0.3,0.6,0.4,1,0.4c0.5,0,1.3-0.3,1.1-1
			C3.6,4.2,2.6,4.2,2.1,4C1.5,3.9,0.8,3.6,0.6,2.9C0.3,2.2,0.6,1.5,1.2,1.1c1.3-0.8,3.5-0.3,3.5,1.4c-0.2,0-1.1,0-1.1,0
			S3.5,2.1,3.3,1.9C3.1,1.8,2.8,1.7,2.6,1.7c-0.6,0-1.4,0.4-0.7,1c0.5,0.4,1.4,0.4,1.9,0.6c1.5,0.6,1.5,2.6,0,3.2
			C2.2,7.1,0.5,6.4,0.3,4.7z"/>
	</g>
	<g>
		<path d="M7,15.1L5,9.4h1.3l1.4,4.2l1.4-4.2h1.2l-2.1,5.7H7z"/>
		<path d="M13.2,13v-1h2.5v2.3c-1,0.9-2.7,1.2-3.9,0.6c-1.2-0.6-1.7-2.1-1.4-3.4c0.2-1.1,1-2,2.2-2.2c1.3-0.2,2.7,0.2,3.1,1.6
			l-1.1,0.2c-0.2-0.8-1.1-1.1-1.8-0.8c-0.8,0.2-1.1,0.9-1.1,1.7c-0.1,1.8,1.5,2.9,3,1.7V13H13.2z"/>
		<g id="XMLID_1_">
			<path id="XMLID_2_" d="M0.3,13.2c0.2,0,1.1-0.1,1.1-0.1s0.2,0.5,0.3,0.7c0.2,0.3,0.6,0.4,1,0.4c0.5,0,1.3-0.3,1.1-1
				c-0.2-0.5-1.2-0.6-1.6-0.7c-0.7-0.2-1.3-0.5-1.6-1.2C0.3,10.7,0.6,10,1.2,9.6C2.5,8.8,4.7,9.3,4.8,11c-0.2,0-1.1,0-1.1,0
				s-0.2-0.5-0.4-0.6c-0.2-0.2-0.5-0.2-0.7-0.2c-0.6,0-1.4,0.4-0.7,1c0.5,0.4,1.4,0.4,1.9,0.6c1.5,0.6,1.5,2.6,0,3.2
				C2.2,15.6,0.5,14.9,0.3,13.2z"/>
		</g>
	</g>
	<polygon id="XMLID_19_" points="12.7,4.3 12.7,1.1 12.7,1.1 12.7,1.1 7.6,1.1 7.6,1.9 12,1.9 12,4.3 10.7,4.3 12.3,7.1 14,4.3 	"/>
</g>
</svg>
