<?xml version="1.0" encoding="utf-8"?>
<!-- Generator: Adobe Illustrator 19.0.0, SVG Export Plug-In . SVG Version: 6.00 Build 0)  -->
<!DOCTYPE svg PUBLIC "-//W3C//DTD SVG 1.1//EN" "http://www.w3.org/Graphics/SVG/1.1/DTD/svg11.dtd">
<svg version="1.1" id="Ebene_1" xmlns="http://www.w3.org/2000/svg" xmlns:xlink="http://www.w3.org/1999/xlink" x="0px" y="0px"
	 viewBox="0 0 16 16" style="enable-background:new 0 0 16 16;" xml:space="preserve">
<style type="text/css">
	.st0{fill:#CBCBCB;}
	.st1{fill:none;}
	.st2{fill:#FFFFFF;}
</style>
<g>
	<circle class="st0" cx="4.4" cy="4.9" r="1.4"/>
	<g>
		<path class="st1" d="M4.4,6.3c0.8,0,1.4-0.6,1.4-1.4c0-0.8-0.6-1.4-1.4-1.4C3.6,3.5,3,4.1,3,4.9C3,5.7,3.6,6.3,4.4,6.3z"/>
		<path class="st2" d="M1.7,9.2C1.9,9.1,4.3,7.6,7,8.9C9.3,10.1,12.3,7,12.3,7V2.3H1.7V9.2z M4.4,3.5c0.8,0,1.4,0.6,1.4,1.4
			c0,0.8-0.6,1.4-1.4,1.4C3.6,6.3,3,5.7,3,4.9C3,4.1,3.6,3.5,4.4,3.5z"/>
		<path d="M0.7,1.3v13.4h12.6V1.3H0.7z M12.3,7v6.7H1.7V9.2V2.3h10.6V7z"/>
		<path class="st0" d="M7,8.9C4.3,7.6,1.9,9.1,1.7,9.2v4.5h10.6V7C12.3,7,9.3,10.1,7,8.9z"/>
	</g>
</g>
<g id="XMLID_11_">
	<polygon id="XMLID_12_" points="15.3,10 11.5,7.7 11.5,9.4 7,9.4 7,10.5 11.5,10.5 11.5,12.2 	"/>
</g>
</svg>
