<?xml version="1.0" encoding="utf-8"?>
<!-- Generator: Adobe Illustrator 19.1.0, SVG Export Plug-In . SVG Version: 6.00 Build 0)  -->
<!DOCTYPE svg PUBLIC "-//W3C//DTD SVG 1.1//EN" "http://www.w3.org/Graphics/SVG/1.1/DTD/svg11.dtd">
<svg version="1.1" id="Ebene_1" xmlns="http://www.w3.org/2000/svg" xmlns:xlink="http://www.w3.org/1999/xlink" x="0px" y="0px"
	 viewBox="-412 290.3 16 16" style="enable-background:new -412 290.3 16 16;" xml:space="preserve">
<style type="text/css">
	.st0{fill:#88D8EA;}
	.st1{fill:none;}
	.st2{fill:#FFFFFF;}
</style>
<g>
	<circle class="st0" cx="-407.6" cy="295.2" r="1.4"/>
	<g>
		<path class="st1" d="M-407.6,296.6c0.8,0,1.4-0.6,1.4-1.4c0-0.8-0.6-1.4-1.4-1.4c-0.8,0-1.4,0.6-1.4,1.4
			C-409,296-408.4,296.6-407.6,296.6z"/>
		<path class="st2" d="M-410.3,299.5c0.2-0.1,2.6-1.6,5.3-0.3c2.3,1.2,5.3-1.9,5.3-1.9v-4.7h-10.6V299.5z M-407.6,293.8
			c0.8,0,1.4,0.6,1.4,1.4c0,0.8-0.6,1.4-1.4,1.4c-0.8,0-1.4-0.6-1.4-1.4C-409,294.4-408.4,293.8-407.6,293.8z"/>
		<path d="M-411.3,291.6V305h12.6v-13.4H-411.3z M-399.7,297.3v6.7h-10.6v-4.5v-6.9h10.6V297.3z"/>
		<path class="st0" d="M-405,299.2c-2.7-1.3-5.1,0.2-5.3,0.3v4.5h10.6v-6.7C-399.7,297.3-402.7,300.4-405,299.2z"/>
	</g>
</g>
<g id="XMLID_11_">
	<polygon id="XMLID_12_" points="-396.7,300.3 -400.5,298 -400.5,299.7 -405,299.7 -405,300.8 -400.5,300.8 -400.5,302.5 	"/>
</g>
</svg>
