<?xml version="1.0" encoding="utf-8"?>
<!-- Generator: Adobe Illustrator 19.1.0, SVG Export Plug-In . SVG Version: 6.00 Build 0)  -->
<!DOCTYPE svg PUBLIC "-//W3C//DTD SVG 1.1//EN" "http://www.w3.org/Graphics/SVG/1.1/DTD/svg11.dtd">
<svg version="1.1" id="Ebene_1" xmlns="http://www.w3.org/2000/svg" xmlns:xlink="http://www.w3.org/1999/xlink" x="0px" y="0px"
	 viewBox="-412 290.3 16 16" style="enable-background:new -412 290.3 16 16;" xml:space="preserve">
<style type="text/css">
	.st0{fill:#EEF7FC;}
</style>
<g>
	<path class="st0" d="M-398.2,302.8c-0.9-0.3-1.6-0.5-2.4-0.7c-0.6,0.8-1.5,1.5-2.4,1c-0.8-0.5-1.1-1.9-1.2-2.7
		c-0.4,0.7-0.7,1.4-0.9,2.2c-0.2,0.5-0.1,1.6-0.9,1.5c-1.1-0.1-1.4-1.9-1.4-2.7c-0.3,0.3-0.5,0.4-1.2,0.4l-2.9-0.2
		c-0.2-0.1-0.2-0.2-0.4-0.4v5h15.8l0,0v-3C-396.6,303.2-398,302.9-398.2,302.8z"/>
	<path d="M-396.2,302.4c-0.3-0.2-2.8-0.8-3.2-1c-0.7-0.2-1.4-0.6-2-0.1c-0.4,0.3-0.7,1.4-1.3,0.8c-0.5-0.5-0.6-1.6-0.6-2.3
		c-0.1-0.5,0-2-0.9-1.5c-0.5,0.2-0.9,1.4-1.1,1.9c-0.4,0.8-0.7,1.7-0.9,2.5c-0.5-0.9-0.2-2.2-0.2-3.2s0-2,0-2.9c0-0.9,0.4-6-0.5-6.1
		c-0.8,0-0.5,2.2-0.5,2.7c0,0.9,0,1.8-0.1,2.8c-0.1,0.9-0.2,4.8-1,4.8l-2.9-0.2c-0.4,0-0.6,0.4-0.4,0.7c0.1,0.1,0.2,0.3,0.4,0.3
		l2.9,0.2c0.4,0,0.8,0,1.1-0.4c0,0.8,0.2,2.6,1.4,2.7c0.8,0.1,0.7-0.9,0.9-1.4c0.2-0.8,0.5-1.6,0.9-2.3c0.1,0.8,0.4,2.2,1.2,2.7
		c0.9,0.5,1.9-0.3,2.4-1c0.9,0.2,1.8,0.5,2.7,0.8c0.2,0.1,1.1,0.3,1.7,0.3c0.1,0,0.2-0.1,0.2-0.1S-396.1,302.4-396.2,302.4z"/>
</g>
<g id="XMLID_11_">
	<polygon id="XMLID_12_" points="-396,292.6 -399.9,290.3 -399.9,292 -404.5,292 -404.5,293.1 -399.9,293.1 -399.9,294.8 	"/>
</g>
</svg>
